# xmcd CD database file
#
# Track frame offsets:
#	150
#	34728
#	80823
#	108453
#	135918
#	169665
#	202428
#	224845
#	257823
#	285723
#
# Disc length: 4028 seconds
#
# Revision: 2
# Processed by: cddbd v1.5.2PL0 Copyright (c) Steve Scherf et al.
# Submitted via: CDex 1.70beta2
#
DISCID=9f0fba0a
DTITLE=Barker,Guy - Timeswing
DYEAR=1996
DGENRE=Jazz
TTITLE0=Timeswing
TTITLE1=Cat Strut
TTITLE2=Duke Ellington's Sound Of Love
TTITLE3=The Whole Bit
TTITLE4=Sleeping In Iridium
TTITLE5=As And When
TTITLE6=O Subjectivo Objectivo
TTITLE7=Sometime Soon
TTITLE8=And All Of That
TTITLE9=Isn't It Romantic?
EXTD=YEAR: 1996
EXTT0=
EXTT1=
EXTT2=
EXTT3=
EXTT4=
EXTT5=
EXTT6=
EXTT7=
EXTT8=
EXTT9=
PLAYORDER=
